<?xml version="1.0" encoding="utf-8"?>
<svg xmlns="http://www.w3.org/2000/svg" version="1.0" width="1120.000000pt" height="1120.000000pt" viewBox="0 0 1120.000000 1120.000000" preserveAspectRatio="xMidYMid meet">

<g transform="translate(0.000000,1120.000000) scale(0.100000,-0.100000)" fill="#000000" stroke="none">
<path d="M1648 11185 c-127 -41 -283 -269 -402 -589 -106 -283 -189 -714 -231&#xA;-1206 -21 -246 -38 -770 -31 -929 l6 -134 -50 -152 c-396 -1207 -399 -2944 -8&#xA;-4145 471 -1447 1475 -2341 3008 -2679 240 -53 685 -121 790 -121 22 0 40 -3&#xA;40 -8 0 -4 -251 -132 -557 -285 -844 -421 -1194 -608 -1235 -658 -36 -43 -12&#xA;-111 44 -124 82 -18 504 -80 690 -100 453 -51 812 -64 1198 -45 580 29 1080&#xA;106 1530 235 773 221 1522 620 2064 1099 617 544 1095 1216 1409 1976 135 328&#xA;185 494 331 1115 117 498 176 1050 176 1655 0 787 -103 1500 -300 2085 l-40&#xA;119 0 287 c0 953 -109 1680 -325 2171 -91 207 -208 368 -299 413 -77 38 -152&#xA;43 -254 17 -241 -61 -543 -264 -945 -634 l-84 -78 -99 46 c-394 185 -919 331&#xA;-1449 403 -621 85 -1368 93 -2020 20 -606 -68 -1176 -217 -1628 -428 l-89 -42&#xA;-86 82 c-336 318 -660 543 -892 619 -87 28 -201 34 -262 15z m4257 -1975 c758&#xA;-40 1324 -194 1737 -471 302 -203 510 -451 683 -812 176 -367 279 -823 316&#xA;-1396 15 -243 6 -881 -15 -1086 -82 -758 -266 -1265 -608 -1670 -325 -385&#xA;-811 -630 -1468 -739 -449 -75 -1070 -94 -1615 -51 -634 51 -1124 194 -1487&#xA;435 -124 83 -165 116 -287 234 -412 401 -640 967 -727 1808 -21 208 -30 810&#xA;-15 1046 67 1052 360 1751 909 2164 400 302 946 474 1672 528 281 21 630 24&#xA;905 10z"/>
<path d="M4315 7421 c-148 -24 -270 -86 -370 -186 -80 -80 -125 -151 -163&#xA;-257 l-27 -73 -3 -746 c-3 -841 -4 -830 69 -979 59 -119 170 -230 289 -289 96&#xA;-47 194 -71 290 -71 292 0 557 208 630 496 18 71 20 112 20 498 l0 421 -70 2&#xA;c-227 7 -427 165 -485 384 -31 117 -13 278 43 383 39 75 154 185 230 220 34&#xA;16 62 33 62 36 0 11 -81 66 -146 98 -107 54 -260 80 -369 63z"/>
<path d="M6451 7419 c-200 -30 -383 -162 -479 -346 -75 -144 -73 -119 -70&#xA;-976 l3 -762 23 -65 c136 -381 552 -556 907 -381 151 74 277 220 332 384 l28&#xA;82 3 466 3 466 -55 -5 c-71 -6 -188 21 -268 60 -36 19 -88 57 -124 94 -245&#xA;244 -184 663 120 825 l59 32 -24 20 c-100 81 -305 128 -458 106z"/>
</g>
</svg>